<?xml version="1.0" encoding="utf-8"?>
<!-- Generator: Adobe Illustrator 17.0.0, SVG Export Plug-In . SVG Version: 6.00 Build 0)  -->
<!DOCTYPE svg PUBLIC "-//W3C//DTD SVG 1.1//EN" "http://www.w3.org/Graphics/SVG/1.1/DTD/svg11.dtd">
<svg version="1.1" id="Layer_1" xmlns="http://www.w3.org/2000/svg" xmlns:xlink="http://www.w3.org/1999/xlink" x="0px" y="0px"
	 width="360px" height="360px" viewBox="0 0 360 360" enable-background="new 0 0 360 360" xml:space="preserve">
<g>
	<path fill="#F1C532" d="M146.131,279.949c-4.229-1.375-8.767,0.936-10.145,5.161c-1.045,3.213,0.044,6.601,2.478,8.642
		l-1.876,3.697c0,0,1.091,1.08,3.13,1.741c2.035,0.667,3.329,0.365,3.329,0.365l0.63-3.941c3.376-0.015,6.511-2.133,7.614-5.517
		C152.668,285.869,150.359,281.331,146.131,279.949"/>
	<path fill="#F1C532" d="M282.522,109.246c1.911-6.854-2.527-8.09-4.044-8.517l-45.789-12.788c-3.531-0.987-2.329-9.024-5.588-9.928
		c0,0-32.774-9.161-36.045-10.072c-3.262-0.916-6.399,6.58-9.932,5.599L135.34,60.746c-1.522-0.427-5.956-1.666-7.87,5.189
		l-10.409,37.253c-0.146,0.525-0.553,0.712-1.036,0.579l-3.266-0.915c-1.103-0.308-2.105,0.134-2.957,1.667
		c-0.913,1.673-2.122,4.214-3.288,8.407c-1.305,4.671-1.792,8.649-1.895,10.147c-0.087,1.386-0.087,2.459,1.667,2.952l29.322,8.189
		c1.616,0.451,4.086,0.618,5.591-2.588c3.134-6.662,11.076-19.307,13.734-20.818c3.564-1.999,24.256,1.428,24.256,1.428
		s-0.59,1.132-1.4,4.406c-0.805,3.271,1.047,11.278-0.832,12.336c-10.27,5.78-28.577-2.984-34.648,14.181
		c-15.427,43.657-26.73,62.282-43.865,73.669c8.03,9.424,27.03,19.383,54.413,27.716c-0.206-0.988-0.272-1.712-0.292-2.555
		c-0.047-1.566,0.043-3.541-0.672-9.988c-0.659-6.038-1.021-8.964-1.16-11.994c-0.137-3.052,0.328-5.854,1.743-10.888
		c0.174-0.629,0.371-1.306,0.576-2.012c2.038-6.972,8.567-26.396,11.197-31.867c0.46-0.971,1.015-0.799,1.161-0.754
		c0.145,0.047,0.736,0.188,0.613,1.253c-0.702,6.008-5.634,25.918-7.672,32.902c-0.203,0.698-0.4,1.343-0.572,1.963
		c-1.377,4.963-1.224,7.327-1.118,9.871c0.11,2.563,0.742,5.683,1.431,11.833c0.714,6.506,0.662,8.858,0.699,10.294
		c0.03,1.081,0.093,1.644,0.725,3.89c0.168,0.048,0.324,0.102,0.492,0.143c31.293,8.741,55.438,10.658,68.17,6.393
		c-8.727-18.609-8.727-40.401,0.685-85.686c3.703-17.83-16.497-19.824-22.28-30.089c-1.056-1.876,4.744-7.745,5.752-10.96
		c1.008-3.211,1.021-4.509,1.021-4.509s20.408,8.055,22.418,11.612c1.499,2.666,1.735,17.599,0.96,24.917
		c-0.373,3.519,1.825,4.665,3.438,5.112l29.328,8.194c1.75,0.487,2.309-0.433,2.95-1.665c0.689-1.33,2.337-4.988,3.641-9.657
		c1.171-4.189,1.459-6.991,1.543-8.897c0.064-1.75-0.563-2.646-1.659-2.954l-3.274-0.914c-0.487-0.136-0.732-0.505-0.586-1.028"/>
	<path fill="#F1C532" d="M161.378,262.795c0.592,6.086,1.75,15.456,2.579,19.036c37.615,9.951,63.394,5.055,69.39,0.941
		c4.472-3.074,7.47-4.621,1.381-17.226C221.087,271.151,192.826,270.783,161.378,262.795"/>
	<path fill="#F1C532" d="M86.395,224.215c-11.86,8.062-10.321,12.3-7.001,16.597c8.066,10.436,29.783,26.019,69.495,37.113
		c0,0,7.899,2.143,9.005,2.442c-0.623-3.12-2.05-13.206-2.733-19.238C122.012,251.75,95.678,236.648,86.395,224.215"/>
</g>
</svg>
